<svg width="307" height="171" xmlns="http://www.w3.org/2000/svg"><path d="M303 57.7v.7c-.8 2-2.2 3.7-4.7 4-1 .2-1.9.3-2.8.2-1.8-.2-3.6-.6-5.4-1l-1.1-.3c4.6-1.6 9.3-2.5 14-3.6zm-51.4 30.8l-2-6.6a11 11 0 0 1-.6-4c.2-2.6 1-5 2.2-7 0-.2.1-.2.2-.3.7 4 .8 16 .2 17.9zm38 20l1.8.1c.6.2.8.7.4 1.3l-.9 1c-2.6 2.4-6.2 2-8.9-2.5h7.6zM185 150v-.2l.4-.4c1.5-2 2.6-4.2 3.2-6.6l1.2-4c1.4-4.6 4.4-7.8 8.2-10.7v.6c-1.1 4-2.4 7.8-4 11.5a24.3 24.3 0 0 1-4.8 7.6c-.8.8-3.2 2-4.2 2.2zm50-1c-.6 1.8-2.3 4.5-3 5 .1-2 1.3-3.9 3-5zM117.8 148a24.4 24.4 0 0 1-4.9-7.6 89.3 89.3 0 0 1-3.8-11.5l-.1-.6c3.8 2.9 6.8 6.1 8.2 10.7l1.2 4a17.6 17.6 0 0 0 3.5 7l.1.2c-1-.2-3.4-1.4-4.2-2.2zM72 149c1.7 1.1 2.9 3 3 5-.7-.5-2.4-3.2-3-5zM16 111l-.8-1c-.4-.7-.2-1.2.4-1.4l1.8-.2H25c-2.7 4.4-6.3 4.9-9 2.6zm38.4-22.5c-.6-1.8-.5-13.8.2-18 0 .2.2.2.2.3 1.2 2.2 2 4.5 2.2 7.1a11 11 0 0 1-.5 4l-2.1 6.6zM16.9 61.7l-5.4.9c-1 .1-1.9 0-2.8-.1-2.5-.4-4-2-4.7-4.1v-.7c4.7 1 9.4 2 14 3.6l-1 .4zm35.8-34.9c1.3 2.5 2.6 8.4 2.3 10-3-1.8-3.7-7.4-2.3-10zm17.3 1c-.6 3.6-2.2 6.4-5 8.4-1.9 1.4-5.5 2-7 1.3a43 43 0 0 1 12-9.7zm182 9c-.3-1.6 1-7.5 2.3-10 1.4 2.6.7 8.2-2.3 10zm-11-.6c-2.8-2-4.4-4.8-5-8.4a43 43 0 0 1 12 9.7c-1.5.7-5.1 0-7-1.3zm61.8 9.6l3.7-5.8.5-1c0-.4 0-.8-.5-1-.4-.2-.7-.1-1 .2l-.7.8-5.5 7.6a53 53 0 0 1-28 20.4l-.2-.1v-.1-.3c2.6-5.5 4.6-11.3 6.6-17l1.8-5.4.1-.2h1c1.9-.2 3.3-1.2 4.2-2.8 1-1.6 1.2-3.3.9-5-.8-4-5.3-5.9-8.6-3.6-2.9 2-3.8 5.9-2 8.6.4.7 1 1.2 1.6 2a160.5 160.5 0 0 1-10.2 25.8l-.2-.6c-.4-4.4-1-8.8-1.2-13.2-.4-6 .1-11.9 1.2-17.8l2.9-15 .6-3.3c.2-1.1-.1-1.8-.8-2-.8-.1-1.4.3-1.7 1.5-2.5 9.3-4.5 18.8-5.1 28.6l-.1 2c-.3 0-.6-.2-.7-.3-1-1-2.2-1.9-3-3-1.5-1.6-2.8-3.5-4.1-5.3l-.6-.9.5-.5c3.9-3.7 4.3-9.8 2.6-13.7-.3-.7-.7-1.4-1.2-2-1.2-1.1-2.7-.8-3.4.8l-.4 1.8-1.5 6.7-.5-.8a69 69 0 0 1-3.3-11l-1.6-7.2-.1-.9 1-.6a6.8 6.8 0 0 0 3.2-6.9 7.2 7.2 0 0 0-5.4-5.2c-1.7-.3-3.1.1-4.4 1.2-2.4 2-3 4.5-2.4 7.4.4 1.9 1.7 3 3.5 3.8l1.2.3c.6.1.7.5.8 1l1.4 7.3a67 67 0 0 0 3 10.2l.2 1c-.4-.4-.6-.6-.9-.7l-7.3-5.5c-.5-.4-1.2-.8-1.8-1-1.5-.6-2.8.1-3.2 1.7-.4 1.4-.1 2.9.3 4.2.6 2 1.5 3.7 2.8 5.3 3 3.6 6.8 5 11.4 4.7.8 0 1.7-.5 2.6-.7l.5.7c1.5 2 2.8 4 4.3 5.8a16 16 0 0 0 5.6 4.7c.7.3.9.8.9 1.5 0 6.5 1 13 2.3 19.3.1.4 0 1-.1 1.3-2.9 5.6-6.1 11-9.7 16.3l-.3.4v-.7c.5-3.2.5-6.5.3-9.7l-.6-11.2v-.9c-.2-1.1-1.2-1.6-2.2-1a19 19 0 0 0-5.1 8.3c-.8 2.7-.5 5.3.5 7.8l2.2 5c1 2.1 1.4 4.4 1 6.7-.1 1-.4 1.9-1 2.7a172.2 172.2 0 0 1-29 31l-8.7 6.6a1 1 0 0 1-.7.2l.3-.5a70.2 70.2 0 0 0 12.7-21.9c3.5-9.2 5.7-18.7 7-28.4l1.6-14.1v-.8c0-.6-.4-1-1-1-.5-.1-1 .2-1.2.7a5 5 0 0 0-.2 1.1l-2 14.7-1.5 8.1-.2 1.2-.5-.8c-2.7-5-4.6-10.4-6-16-1.5-5.6-2.5-11.4-3.6-17.2l-1-4.3c-.1-.9-.6-1.3-1.2-1.2-.7 0-1.1.6-1.2 1.4v.8c.7 3.4 1.2 7 2 10.4.8 4.7 2 9.3 3.3 13.9a51.6 51.6 0 0 0 7 15c.4.4.6 1 .4 1.6-2.3 9-5.3 17.8-10 25.9-1.6 2.6-3.5 5-5.2 7.6l-.6.5.3-.8a71.8 71.8 0 0 0 5.3-29c0-.5.1-1 .5-1.3.9-1 1.5-2.2 1.4-3.6-.2-2.2-1.7-3.7-3.7-3.6a4 4 0 0 0-3.8 4 4 4 0 0 0 2 3.4c.7.4.8.8.8 1.5a78.7 78.7 0 0 1-6.5 30c-1.4 3.2-3.1 6.3-5.2 9.1-.5.6-1 1-1.7 1.4-1.3 1-2.8 1.7-4.2 2.5l-1 .5c.1-.4.2-.7.4-.9 1.2-2 2.3-4.1 3-6.4l3.8-11.6.2-.7c0-1.1-.8-1.8-1.8-1.6-.4 0-.8.2-1.2.4-3 1.9-5.8 4-8 6.6-1.9 2.2-3.1 4.8-3.8 7.5l-.8 3a19.6 19.6 0 0 1-10.7 12.9 304 304 0 0 1-21.7 8 304 304 0 0 1-21.7-8 19.6 19.6 0 0 1-10.7-13l-.8-2.9c-.7-2.7-2-5.3-3.8-7.5-2.2-2.7-5-4.7-8-6.6-.4-.2-.8-.4-1.2-.4-1-.2-1.8.5-1.8 1.6l.2.7 3.8 11.6c.7 2.3 1.8 4.4 3 6.4l.5.9-1.1-.5c-1.4-.8-2.9-1.6-4.2-2.5a6 6 0 0 1-1.7-1.4 44 44 0 0 1-5.2-9.2 78.7 78.7 0 0 1-6.5-30c0-.6.1-1 .8-1.4a4 4 0 0 0 2-3.3 4 4 0 0 0-3.8-4c-2-.2-3.5 1.3-3.7 3.5-.1 1.4.5 2.6 1.4 3.6.4.4.5.8.5 1.3l-.1 3.3c.2 8.9 2 17.4 5.4 25.7l.3.8-.6-.5c-1.7-2.5-3.6-5-5.2-7.6-4.7-8-7.7-16.9-10-25.9-.2-.7 0-1.2.4-1.7 3.2-4.6 5.4-9.6 7-15 1.4-4.5 2.5-9.1 3.4-13.8L94 56.9V56c0-.8-.5-1.3-1.2-1.4-.6 0-1.1.3-1.3 1.2l-.9 4.3C89.5 66 88.5 71.8 87 77.5a74.4 74.4 0 0 1-6 16l-.5.7-.2-1.2-1.4-8-2-14.8a5 5 0 0 0-.3-1.1c-.2-.5-.7-.8-1.2-.7-.6 0-1 .4-1 1v.8l1.6 14c1.3 9.8 3.5 19.3 7 28.5 3 8 7 15.5 12.7 21.9l.3.5a1 1 0 0 1-.7-.2c-2.9-2.3-5.9-4.4-8.7-6.7a172.3 172.3 0 0 1-29-30.9c-.6-.8-.9-1.7-1-2.7-.4-2.3 0-4.6 1-6.7l2.2-5c1-2.5 1.3-5.1.5-7.8a19 19 0 0 0-5-8.2c-1-.7-2-.2-2.3 1v.8L52.4 80c-.2 3.2-.2 6.5.3 9.7v.7l-.3-.4c-3.6-5.2-6.8-10.7-9.7-16.3a2 2 0 0 1-.1-1.3A103 103 0 0 0 44.9 53c0-.7.2-1.2 1-1.5a16 16 0 0 0 5.5-4.7l4.3-5.8.5-.7c1 .2 1.8.6 2.6.7 4.6.3 8.4-1.1 11.4-4.7A15 15 0 0 0 73 31c.4-1.3.7-2.8.3-4.2-.4-1.6-1.7-2.3-3.2-1.7-.6.2-1.3.6-1.8 1L61 31.6l-1 .6.4-.9a67 67 0 0 0 2.9-10.2l1.4-7.3c0-.5.2-.9.8-1l1.2-.3c1.8-.7 3.1-2 3.5-3.8.5-2.9 0-5.5-2.4-7.4A5.1 5.1 0 0 0 63.4 0C61 .6 58.5 2.9 58 5.3c-.5 2.6.8 5.5 3.2 6.9l1 .6-.1.9-1.6 7.1c-.8 3.8-1.9 7.5-3.3 11.1l-.5.8-1.5-6.7-.4-1.8c-.7-1.6-2.2-2-3.4-.7-.5.5-1 1.2-1.2 2-1.7 3.8-1.3 9.9 2.6 13.6l.5.5-.6 1-4 5.3-3 2.9-.8.4-.1-2.1c-.6-9.8-2.6-19.3-5.1-28.6-.3-1.2-.9-1.6-1.7-1.4-.7.1-1 .8-.8 1.9l.6 3.3 3 15c1 5.9 1.5 11.8 1 17.8-.2 4.4-.7 8.8-1.1 13.2l-.2.6h-.2c-4.2-8.3-7.3-17-10-25.9.6-.7 1.2-1.2 1.6-1.9 1.8-2.7.9-6.5-2-8.6a5.5 5.5 0 0 0-8.6 3.5c-.3 1.8 0 3.5.9 5 1 1.7 2.3 2.7 4.3 2.8l.9.1.1.2 1.8 5.3A194.7 194.7 0 0 0 35.9 67h-.1a53 53 0 0 1-28-20.4L2.1 39l-.6-.8c-.4-.3-.7-.4-1.1-.2-.5.2-.6.6-.5 1l.5 1 3.7 5.8c2.7 4 5.6 8 9.3 11.4l.6.4-.5.1L9 56.4 4.6 55c-1.8-.5-3.1.4-3.2 2.2-.1.9 0 1.8.3 2.6 1.4 3.8 4.3 6 8.7 6 2.4.1 4.6-.5 6.9-1.2l3.2-1c.8-.2 1.4 0 2.1.4l3.9 2.1c3.3 1.6 6.8 3 10.6 3l1.2 2.6 1.2 2.3a290 290 0 0 0 6.6 12 170.9 170.9 0 0 0 9.2 13.7L57 102a555 555 0 0 0 8.6 10.6l2 2 1.8 2c.6.7 1.3 1.2 2 2.2l-1.3-.3c-1.4-.6-2.9-1-4.3-1.7A88.1 88.1 0 0 1 43.5 102c-4.8-4.2-9.1-9-13.5-13.7l-.2-.4a7 7 0 0 0 .6-4.5 5.3 5.3 0 0 0-4.6-4.4c-2.3-.3-5 1.2-6 3.5-.4.8-.5 1.7-.4 2.5.4 3.3 4.1 5.8 7.3 5l1-.2 7.8 8.5c2.7 2.8 5.5 5.4 8.4 8.2l-3 .1a54.4 54.4 0 0 1-23-3.1c-3.2-1.2-6.2-2.8-9.3-4.3l-7-3.1c-.5-.2-1-.2-1.2.3-.3.4-.1.9.3 1.2l1.1.8c5 2.7 10 5.6 15.4 7.7l.5.2c-.4.2-.8.2-1.1.2-.7.1-1.4 0-2 .3-2.2.5-3.2 2.6-2.2 4.6.4.7 1 1.3 1.5 1.9 3 2.6 7.2 2.7 10.5.3a14 14 0 0 0 3.5-3.9l.5-.7h.6c2.8.4 5.7.5 8.6.4l8-.6c.8-.1 1.5 0 2.2.6a77 77 0 0 0 15.4 9.6c3.5 1.6 7.1 2.8 11 3.1.6 0 1 .3 1.5.8 3.5 3 6.9 6.3 10.5 9.3a169 169 0 0 0 33.6 21.1l1.8 1v.1h-.5l-12.7-1.8a146.2 146.2 0 0 1-23.7-6.6c-1.2-.5-2.5-.9-3.7-1.2-.7-.2-1.2 0-1.4.5-.2.4 0 1 .5 1.3l.9.4c3.9 1.9 8 3.3 12 4.5l2.7.8-1.2 1c-1.3.9-2.7 1.5-4.1 1.9a42 42 0 0 1-9.3 1.3h-3v-1c-.2-1-.3-2.2-.7-3.2a9.3 9.3 0 0 0-6.2-5.7c-1-.3-2-.2-2.7.8-.5.8-.4 1.7.5 2.8l4.2 5.4.4.8-4.5-1-5.9-1.4c-.7-.2-1.1-.4-1.4-1.3a4.8 4.8 0 0 0-5.2-3.5c-2 .2-4 2-4.1 4a4.7 4.7 0 0 0 6.1 4.8c1.2-.4 2.3-1 3-2 .5 0 .8.2 1.2.3 3 .8 6 1.7 8.9 2.3 3.5.7 7 .6 10.5.5 3.3-.2 6.6-.6 9.7-1.7 2.4-.8 4.6-2 5.9-4.4a101.7 101.7 0 0 0 13.6 2.9l11.7 1.4 5 .2 1.5.3c6 2.6 12.3 5 18.6 7l-1 .3a89.7 89.7 0 0 1-21.7 3.7c-.5.1-1 .3-1 1-.1.6.5.8 1 .8 1.6.2 3.3.4 5 .4a63 63 0 0 0 17.5-2.8l5.5-1.6 5.5 1.6a63 63 0 0 0 17.5 2.8c1.7 0 3.4-.2 5-.4.5 0 1.1-.2 1-.9 0-.6-.5-.8-1-.9l-2-.2a89.7 89.7 0 0 1-19.8-3.5l-.9-.3c6.3-2 12.5-4.4 18.6-7 .5-.2 1-.2 1.6-.3 1.6 0 3.3 0 5-.2l11.6-1.5c4.3-.6 8.5-1.4 12.7-2.6l1-.2c1.2 2.4 3.4 3.6 5.8 4.4a42.8 42.8 0 0 0 20.2 1.1c3-.5 6-1.4 8.9-2.2.4 0 .7-.2 1.1-.3.8 1 1.9 1.6 3 2 3 1 6.4-1.2 6.2-4.8 0-2-2-3.8-4.1-4-2.4-.2-4.5 1.1-5.2 3.5-.3.9-.7 1-1.4 1.3l-5.9 1.4-4.5 1 .4-.8 4.2-5.4c.9-1.1 1-2 .5-2.8-.7-1-1.7-1-2.7-.8-3 1-5 2.8-6.2 5.7-.4 1-.5 2.2-.7 3.3v1l-3-.1a42 42 0 0 1-9.3-1.3c-1.4-.4-2.8-1-4-1.9l-1.3-1 2.7-.8c4-1.2 8.1-2.6 12-4.5l.9-.4c.5-.4.7-.9.5-1.3-.2-.5-.7-.7-1.4-.5a146.2 146.2 0 0 1-27.4 7.8l-12.7 1.8h-.4v-.2l1.7-.9c12-5.7 23.2-12.7 33.6-21.1 3.6-3 7-6.2 10.5-9.3.5-.5 1-.7 1.6-.8 3.8-.3 7.4-1.5 10.9-3.1a77 77 0 0 0 15.4-9.6c.7-.5 1.4-.7 2.3-.6l8 .6c2.8.1 5.7 0 8.5-.4h.6l.5.7c1 1.5 2 2.9 3.5 4a8.1 8.1 0 0 0 12-2.3c1-2 0-4.1-2.1-4.6l-2.1-.3c-.3 0-.7 0-1-.2l.4-.2c5.4-2.1 10.4-5 15.4-7.7l1.1-.8c.4-.3.6-.8.3-1.2-.3-.5-.7-.5-1.2-.3l-7 3.1c-3 1.5-6 3.1-9.3 4.3a54.4 54.4 0 0 1-23 3.2l-3-.2c2.9-2.8 5.7-5.4 8.4-8.2 2.6-2.7 5.1-5.6 7.7-8.5.4 0 .7.2 1.1.3 3.2.7 6.9-1.8 7.3-5 0-1 0-1.8-.4-2.6-1-2.3-3.7-3.8-6-3.5-2.4.3-4.2 2-4.6 4.4a7 7 0 0 0 .6 4.5l-.2.4c-4.4 4.7-8.7 9.5-13.5 13.7-6.8 6-14 11-22.2 14.7l-4.3 1.7-1.2.3c.6-1 1.3-1.5 2-2.2l1.8-2a122.5 122.5 0 0 0 7.1-8.3l1.7-2.1a432.7 432.7 0 0 0 8-11 181 181 0 0 0 8.6-14.2l1.2-2.4 1.3-2.5 1.2-2.3 1.2-2.5c3.8 0 7.3-1.5 10.6-3l3.9-2.2c.7-.4 1.3-.6 2-.3l3.3.9c2.3.7 4.5 1.3 7 1.3 4.3 0 7.2-2.3 8.6-6 .3-.9.4-1.8.3-2.7-.1-1.8-1.4-2.7-3.2-2.2l-4.4 1.4-4.6 1.3-.5-.1.6-.4c3.7-3.4 6.6-7.3 9.3-11.4z" fill="#000" fill-rule="evenodd"/></svg>