<svg width="150" height="120" xmlns="http://www.w3.org/2000/svg"><g fill="#BB946A" fill-rule="evenodd"><path d="M4.8 49.6a182 182 0 0 0 3.4 1.7l.2.2 5.1 2.1c1.9.9 3.8 1.7 5.2 3.2l.4.4c2.3 2 4.1 4.3 6.2 6.4a7.7 7.7 0 0 0 7.6 2.2c2.4-.6 4.7-1.5 7.1-2.3v-.2c-1.8-.7-3.6-1.3-5.2-2.1a47 47 0 0 1-16.3-13c-1.4-1.6-2.5-3.5-3.7-5.3-.3-.5-.7-1-1.5-.8-2.2.7-4.4 1.5-6.4 2.8-1.1.8-2.2 1.5-2.8 2.7v1.2l.7.8zM17 29.3l.5.1 3.5.4c1.1.1 2.2.4 3.2.6.8.1 1.5.4 2.3.6v-.6c-1.2-3.2-2.5-6.4-3.2-9.7-.2-.9-.3-1.8 0-2.7.5-1 1.7-1.5 2.8-1.5 1.1 0 2.1.7 3.2.7 1 0 2-1 2.6-1.8.7-1.2 1-2.6 1.5-3.9.8-1.6 2.2-3 3.8-3.7 2-1 3.3-.5 5.4-.3.8 0 1.7-.1 2.3-.6 2.9-2-.8-3.5-2.4-4.2-2.7-1-5.8-.9-8.5 0a23.3 23.3 0 0 0-9.3 6.7c-2.7 2.8-5 6-7.5 9-1 1-2 2-2.6 3.4a5.7 5.7 0 0 0 2.5 7.5z"/><path d="M40.2 10c-2 0-3.8.7-5 2.4-1.2 1.8-1.7 2.3.1 4l2.1 1.6v.2l-4.2-1-1.2 1.5c2.8.7 5.3 1.8 8.2 2.3l-.7-1.8c-.7-1.5-1-3 .2-4.4a7 7 0 0 1 1.8-1.6l4.5-2.3-.8-.4c-1.6-.7-3.3-.5-5-.5z"/><path d="M55.5 12l-2.4.2h-2.9c-2.6 0-5.9 1.1-8 2.9-.5.5-1 1.1-1.2 1.9-.1 1 .2 2 1 2.7 1.4 1.4 3.7 1.5 5.6 1.1.6 0 1.2-.2 1.5-.7.4-.5.4-1.3 0-1.8-.3-.6-1-.8-1.7-.8-1 .2-1.6 1-2.1 1.8-.2-.4-.1-.8 0-1.1l.8-1c.7-.6 1.6-1.1 2.6-1.4.7-.2 1.5-.2 2 .1.5.3.8.8.9 1.4 0 .6-.3 1.3-.6 1.9 0 .3.2.4.5.3 1.2-.4 2.3-1 3.5-1.6.7-.3 2.6-.7 1.8-2l-.5-.6c-.4-.5-.6-1-.7-1.6v-.9c.1-.3.1-.7 0-.8z"/><path d="M33.2 32.7c-.1.7-.2 1.3.6 1.9 1.3.8 2.6 1.9 3.8 3 .8.6 1 .6 1.7-.2a50 50 0 0 1 3.7-3.6c1.6-1.3 3.3-2.5 4.8-3.9l3.5-3.6c1.8-2 3.3-4.1 4.4-6.5.3-.6.2-1.2.3-1.8 0 .5-2.6 1.5-3 1.7a25.2 25.2 0 0 1-11 2.5c-5.2.1-9.3-1.5-13.8-3.9-1-.5-2.5 0-2.8.9-.4.9-.5 1.9-.2 2.8l1.3 4 1.8 5 .3.3 3.3 2c.9-3.9-.8-6.8-2.7-9.8l3 2.2c1.3 1 1.9 2.5 1.7 4.2-.1 1-.5 1.9-.7 2.8zm-4.9-12.2c.6.2 1.2.3 1.7.6a22.6 22.6 0 0 0 16.4 4.2c1 0 2.2-.4 3.5-.7a4.8 4.8 0 0 1-3 2.7c-1.5.6-3.3 1-5 1-2.7 0-5.4-.8-7.6-2.8-1.8-1.8-4-3.3-6-5z" fill-rule="nonzero"/><path d="M41.7 39.6c.5-.4.7-.8 1-1.2 1.2-1.4 2.5-2.8 4-3.9 1.3-.9 3-1.4 4.4-2.2a20 20 0 0 0 8-6.6c1.4-2.1 2.2-4.6 2.6-7.1a8 8 0 0 0 0-4c-.3-1.2-3-3.6-4.3-2.1-.7 1 .6 3 .6 4 .2 2-.3 4.1-1.2 6-1.5 2.9-3.9 5.2-6.4 7.3-1.9 1.6-3.8 3.1-5.6 4.8-1.5 1.5-3.5 3.1-3.8 5.4l.7-.4zM42.5 42a155 155 0 0 0 8.7 4.1c1 .5 2 .8 3.1.9 1 0 2 0 3-.6 1.2-.7 2-2 2.5-3.3a16 16 0 0 0 1.2-6.7c0-1.6-.3-5-1.7-6.2-.6-.5-.8 0-1.4.5-2.4 1.8-5.3 2.8-8 4-1.2.6-10 6-7.4 7.3z"/><path d="M19.6 35.1a38.9 38.9 0 0 1 9.4 3.5c1 .5 1.7 1.3 2.5 2 .2.1.5.2.2.4l-1.8-.8a55.2 55.2 0 0 0-13.8-3.6c-.5 0-1.5 0-1.9-.4v.3a71 71 0 0 0 18.8 20l3.3 2c2.3 1.4 4.7 2.4 7.2 3 5.6 1.5 14-.7 16.8-6 .6-1.2 1.3-4.7-.2-5.7l-.6-.2A77 77 0 0 1 30 35.4l-3.4-1.8c-2.5-1.1-5.1-2-7.8-2.4-2.6-.3-5.2-.3-7.7.5A4 4 0 0 0 9 33c1.6.6 3.5.8 5.2 1l5.4 1.1zM84 36c-1.3-1.7-3-3-4.6-4.2-1.5-1.2-5-3.7-7-2.5-1 .6-1.5 1.7-2 2.7-.8 1.3-8.5 16-9.4 15.7 2.7 1.3 3 3.6 2 6.3h.4c3.2-1.3 5.5-3.6 8-5.7l4-3.2c2.9-2 6-3.5 9.4-4.5 1.2-.3 1.5-1 .8-2.1-.5-.8-1-1.6-1.7-2.4zM48.6 8.9l4-.2c1.9-.5 3.5-1.6 5.4-2 2.3-.3 4.7 0 6.7 1.2l5.4 3.3.6.7-2-.4c-1.6-.6-3.2-1.4-4.8-1.8-1-.3-2.1 0-3.2 0 .1.5.4.7.8 1a9.2 9.2 0 0 1 2.2 9c-.4 1.4-1.2 2.6-1.7 3.9l-1.1 3c-.6 1.8 0 3.5.8 5l.5 1c.4-1.4.8-2.7 1.5-4 .7-1.3 1.5-2.6 2.4-3.8 1.3-2 2.5-4.2 2.8-6.7 0-1 .2-2 1.4-2 .3 1 .6 2 .6 3v.2c.3 2.6-2 4.6-3.2 6.6a32 32 0 0 0-5.4 14.8c0 .7-.4 1.7-.3 2.3.2 0 .4-.5.5-.7.6-1.2 1-2.6 1.7-3.8l4.4-8.5c1.5-2.7 3.4-5.2 5.1-7.8 1.8-2.6 3.3-5.6 3.3-8.8 0-3.3-1.7-6.7-4.7-7.7a54.5 54.5 0 0 0-13-2.6c-4.5-.3-11.1-.2-12.3 5.4 0 .2.7.3 1.6.4z"/><path d="M76 9a5 5 0 0 0-2.3-2.5l-1.3-.4a7 7 0 0 0-.3 0L72 6c.6.1 1.1.3 1.7.6A5 5 0 0 1 76 9zM146 39.2c-.4-1.2-1.2-2-2-2.8a18.7 18.7 0 0 0-5.1-3.3c-.6-.3-1 .1-1.3.5-1.2 1.2-2.2 2.4-3.5 3.5-1.2 1.1-2.6 2.1-4 2.9-3.3 1.8-6.8 3-10.5 3.8l-4.6.8v.1l5.8 2.6c2 .8 4.6 1 6.5 0 1.9-1.2 3.6-2.5 5.6-3.5l.4-.3c1.3-.8 2.9-1 4.5-1.3l4.4-.7h.1a71.3 71.3 0 0 0 3-.7c.2-.2.4-.3.5-.6.2-.3.2-.6.2-1zM115.8 5.8c.5.4 1.3.5 2 .6 1.8 0 3-.2 4.6.5 1.3.6 2.4 1.5 3 2.6.4.8.5 1.8 1 2.6.4.6 1.2 1.3 2.1 1.3 1 0 1.8-.4 2.8-.4 1 0 2 .4 2.2 1.1.3.6.1 1.3-.1 2-.9 2.2-2.2 4.4-3.4 6.5l-.1.4c.7 0 1.3-.2 2-.3l2.7-.2h3.4c2.2-.9 3.7-3.4 2.7-5.6-.4-1-1.3-1.7-2-2.5-1.9-2.1-3.7-4.3-5.7-6.3s-4.7-3.7-7.5-4.5c-2.4-.7-5-.8-7.3-.3-1.5.3-4.7 1-2.4 2.5z"/><path d="M119 11.2c.8.9.5 1.8-.2 2.7l-.7 1.1c2.3-.1 4.6-.6 6.9-1l-.9-1-3.5.4 1.8-1c1.6-1 1.3-1.3.3-2.5-.8-1-2.3-1.6-4-1.7-1.3-.1-2.6-.4-4 0l-.7.1 3.5 1.8c.6.2 1 .7 1.4 1z"/><path d="M105.7 10l-.5.4c-.8.8.8 1.3 1.5 1.6l2.9 1.4c.2.1.4 0 .5-.1-.2-.4-.5-1-.4-1.4 0-.3.4-.6.8-.7.6-.2 1.2-.1 1.8 0 .8.3 1.6.8 2.2 1.3l.6.6c.1.3.1.6 0 .8-.4-.6-.8-1.2-1.8-1.4-.5 0-1.2 0-1.5.4-.4.3-.5.8-.2 1.2.3.3.8.5 1.3.6 1.7.4 3.7.5 5.1-.3.7-.4 1-1 1-1.7 0-.5-.5-1-1-1.3-1.9-1.4-4.3-2.3-6.8-2.7l-2.5-.3-2.1-.4c-.2 0-.2.3-.2.5v.6c0 .4-.3.7-.7 1z"/><path d="M124.3 25.2a121.2 121.2 0 0 0 3.2-1.4l1.8-3.6 1.4-2.8c.4-.7.4-1.5.1-2.2-.2-.7-1.5-1-2.3-.7-3.8 1.6-8 2.4-12 2a24.6 24.6 0 0 1-9-2.9c-.4-.2-2.5-1.3-2.5-1.6l.1 1.3c.8 1.9 1.9 3.6 3.3 5.2.9 1 1.7 2 2.7 2.9 1.2 1 2.5 2 3.7 3.2l3 2.9c.5.6.6.6 1.4.2l3.4-1.7c.7-.3.7-.8.6-1.3l-.4-2.1c0-1.2.6-2.2 1.7-2.9l2.8-1.4c-1.9 1.8-3.4 4.1-3 6.9zm-1.5-5.8c-2 1.3-4.4 1.6-6.7 1.4-1.4-.1-2.8-.6-4.1-1.2-1-.4-2-1-2.3-2.2l3 .9a21.7 21.7 0 0 0 14-1.8l1.5-.4-5.4 3.3z" fill-rule="nonzero"/><path d="M104.3 7.5c-1-1.2-3.5 0-4 .9-.4.8-.3 1.8-.2 2.7.2 1.9.7 3.8 1.7 5.4 1.6 2.4 4.2 4 6.7 5.4 1.3.6 2.7 1.1 3.8 1.9 1.3.8 2.3 1.9 3.3 3l.7.8.7.4c0-1.6-1.8-2.9-3-4l-4.7-3.8c-2-1.6-4-3.4-5.1-5.7-.7-1.3-1-2.9-.7-4.3.2-.7 1.5-2 .8-2.7zM99.6 29c.4 1 1 1.9 2 2.4.8.4 1.6.6 2.5.6 1 0 2-.1 2.8-.4 2.7-.6 6.8-1 8-2 1-.9-4.2-4.6-6-5.5-2.2-1-4.6-2-6.7-3.5-.5-.4-.6-.8-1.2-.5-1.3.6-1.7 3-1.9 4.2a9 9 0 0 0 .5 4.7z"/><path d="M135.9 24a29.7 29.7 0 0 0-10 2.2 93 93 0 0 1-27 7.5c-1.3.6-1 3.1-.5 4 2.5 4.4 9.4 5.6 14 5.2 2.3-.2 4.4-.5 6.5-1.2 1-.3 1.9-.5 2.8-.9a55.6 55.6 0 0 0 8.4-4.2 40.2 40.2 0 0 0 9.2-8.1v-.2c-.3.2-1.2 0-1.6 0a69.3 69.3 0 0 0-12 1.3c-.2 0-1.5.5-1.6.4-.2-.2 0-.2.2-.3.8-.4 1.4-.9 2.3-1.2l2.7-.8a42 42 0 0 1 5.6-.8l4.6-.3c1.5-.1 3 0 4.5-.4-.4-.7-.9-1-1.6-1.2-2-1-4.3-1-6.5-1zM78.9 25.4a37 37 0 0 1 11 6.4c2 1.6 4 3.3 6.5 4.2h.3c-.6-2-.2-3.6 2.3-4.4-3.3-2.8-5-8.2-7-12-.3-.8-.8-1.6-1.5-2.2-1.7-1.1-4.8.3-6.2 1.2-1.5.8-3 1.7-4.3 3l-1.6 2c-.7.8-.5 1.4.5 1.8zM92.8 18.3c1 2.1 2 4.3 3.2 6.4l1.1 2.8c.1.2.2.5.4.5.2-.4 0-1.1 0-1.6a40.7 40.7 0 0 0-1-5.6C96 19 95 17.2 94 15.5c-1-1.6-2.7-3.4-2.3-5.3.1-.9.5-1.6.8-2.3 1 .3 1.1 1.1 1.1 1.8 0 1.8 1 3.6 1.9 5.2l1.7 3c.5 1 .7 1.9 1 2.9l.5-.6c.8-1 1.5-2.1 1.1-3.4l-.7-2.3c-.4-1-1-1.8-1.2-2.8-.2-1-.2-2 0-2.9.3-.8.8-1.6 1.4-2.2a6 6 0 0 1 1.1-.8c.4-.2.7-.3.8-.7-.9-.2-1.8-.5-2.7-.5-1.5 0-2.9.3-4.3.4l-1.6-.2.5-.3c1.6-.5 3.2-1 4.8-1.3 1.8-.5 3.8-.2 5.8.4 1.7.5 3 1.5 4.6 2 .2.2 2 .5 3.4.7l1.4-.1c-.7-4.1-6.8-4.8-10.2-5.3A81 81 0 0 0 91.6 0C89 0 87.2 2.3 87 4.6a13 13 0 0 0 2 7.4c1.3 2 2.7 4.2 3.8 6.3z"/><path d="M90.8 0H92h-1.2c-.8.1-1.4.5-1.8 1 .4-.5 1-.8 1.8-1zM47.8 86.5l.6.3L52 88h.3c2 .7 3.8 1.6 5.4 2.5 1.8 1.1 3.5 2.2 4.5 4.4l.2.7c1.9 3.4 3.2 7.1 4.8 10.7 1.4 3.2 4.7 6.3 8.3 5.5 2.5-.6 5-1.5 7.6-2.3v-.4a52.2 52.2 0 0 1-17.5-25c-.7-2.2-1-4.4-1.9-6.3-.2-.5-.4-1-1.5-.8a40 40 0 0 0-9.9 3.5 15.4 15.4 0 0 0-4.9 3.7c-.3.5-.4 1-.2 1.4 0 .3.4.6.7.8zM100.5 43.5c-2.8-1.8-6.1-3.2-9.4-2-3.4 1-6 3.8-8.6 6.2-2.9 2.6-5.9 5-9.2 7-1.3.7-3 1.5-4 2.6-2.3 2.4-1.4 6 1.5 7.8l.4.2 4.4 1.1 3.4 1.4 2.3 1.2.1-.5c.2-3.1 0-6.5-.5-9.5-.1-.8-.2-1.8.3-2.5.7-.9 2.2-1 3.5-.5 1.3.4 2.3 1.5 3.5 2a3 3 0 0 0 3.1-.9c.9-1 1-2.5 1.6-3.8a6 6 0 0 1 3.3-3.5c2-.8 3.4.2 5.5 1 .9.3 1.7.4 2.4-.1 2.9-2.5-1.8-6.1-3.6-7.2z"/><path d="M104.2 56.3c-1.5-1.3-3.1-1.6-4.7-2-2-.6-3.7-.3-4.8 1.2-1.2 1.7-1.7 2-.2 4.4l1.7 2.3v.1L92.3 60 91 61l7 5.1-.2-2c-.3-1.7-.3-3.3 1-4.4.5-.5 1.1-1 1.8-1.2l4.4-1.3-.8-.8z"/><path d="M113.9 62.8c0-.4.2-.9 0-1v-.1l-2.4-.5-2.8-.9c-2.6-.6-5.6-.4-8 1-.6.2-1.2.8-1.5 1.5-.3.9-.2 2 .2 3 .9 1.9 2.8 2.7 4.6 3.1.5.1 1 .2 1.6-.1.5-.4.8-1.2.6-1.9-.2-.7-.7-1.2-1.3-1.3-1-.2-1.7.4-2.4 1 0-.4.1-.8.4-1.1l.8-.7c1-.4 1.9-.7 2.8-.6.7 0 1.4.2 1.9.8.3.4.5 1 .3 1.6-.1.8-.7 1.4-1.2 1.9-.1.3 0 .4.4.5l3.6-.6c.8-.1 2.8 0 2.5-1.6l-.3-1a5 5 0 0 1-.2-2l.4-1z"/><path d="M86.8 73.9c-.5.5-.9 1-.5 1.7.7 1.1 1.2 2.4 1.6 3.7.3.8.5.8 1.5.5a44 44 0 0 1 5-1.4c2-.4 4-.6 6-1.1 1.5-.4 3.1-1 4.6-1.6 2.8-1.2 5-2.6 7-4.7.5-.5.7-1.2 1-1.8-.2.5-3 .8-3.4 1-1.2.1-2.4.2-3.6.1a19 19 0 0 1-6.6-1.6c-4.7-2-8.4-5.7-12.3-9-1-.8-2.8-1-3.3-.2-.6.7-.8 1.6-.7 2.6a45 45 0 0 1 0 9l2.3 2.7C87.9 71.4 88 68 87 65c.9 1 1.6 2 2.2 3 .8 1.4.7 2.8-.4 4-.5.7-1.3 1.3-2 2zm.1-12c.6.4 1.2.7 1.6 1.2 2 2.2 4.1 4.5 6.5 6.4 2 1.6 4.2 2.8 6.5 3.6l3.3.7a5 5 0 0 1-3.8 1c-1.6 0-3.2-.3-4.5-1-2.3-1.1-4.2-3-5.2-5.3-1.1-2.4-2.8-4.5-4.4-6.7z" fill-rule="nonzero"/><path d="M89.8 82l1.4-.6c1.7-.7 3.5-1.2 5.3-1.4 1.5-.2 3.1 0 4.7 0 3.8 0 7.2-.8 10.3-2.6a18 18 0 0 0 5.8-6.6A11 11 0 0 0 119 66c0-1.6-1.8-5.4-3.4-3.7-1 1.1-.4 4-.8 5.2-.6 2.3-2 4.4-3.8 6a19.7 19.7 0 0 1-9 4.2l-7 1.5c-2.2.4-4.4 1-6 2.7h.8zM108.3 87c.7-1.4 2.2-4.3 1.5-5.7-.3-.6-.7-.2-1.5 0-2.8.4-5.8.3-8.7.2-1.9 0-10.3.8-9.6 2.8.8 2.1 3.5 4.8 5.4 7 .7.8 1.6 1.6 2.5 2 1 .5 1.9.8 2.9.7 1.3-.2 2.5-1 3.5-2 1.6-1.4 3-3.2 4-5z"/><path d="M101.6 98c-9.7-5.6-13-14.5-19.5-23.3-.7-.9-1.6-1.8-2.5-2.5-2.5-2-5-3.2-8-4.2a25.2 25.2 0 0 0-11-.7c-1.4.1-2.4.5-3.6 1.2l7.5 1.5c2.3.5 4.5 1.1 6.5 1.8 2.2.8 4.4 1.8 6.3 3.2a13 13 0 0 1 2.2 2c.7.8 1 1.6 1.3 2.5 0 .2.3.4 0 .5-.2 0-1.2-1.1-1.3-1.2a21.8 21.8 0 0 0-5-3.3 42.2 42.2 0 0 0-8.5-2.8c-.6-.1-2-.2-2.4-.5v.2c.8 2.4 2 4.7 3 7 1.2 2.2 2 4.6 2.8 7a69.4 69.4 0 0 0 5.8 11.1c.8 1.4 1.7 2.5 2.7 3.8a29 29 0 0 0 7.3 6.6c5.7 3.7 13.3 2.5 16.9-3.2.7-1 1.6-4.5.1-6.1-.1-.2-.3-.4-.6-.5zM138.2 90.8c-1.6-1.9-3.8-3.3-5.8-4.7-2.3-1.6-5.4-3.8-8.3-2.9-1.4.4-2.6 1.4-3.6 2.2-4.7 3.6-10.9 9.4-16.5 11.2a6 6 0 0 1 1.7 7.3l.4.1c3.6-.2 6.9-1.7 10.2-3l6-1.9c5.2-1.5 10.8-2.3 16.3-3.2 2.2-.3 3-1.1 2-2.4-.7-1-1.6-1.8-2.4-2.7zM107 54.5c0 .4.7.8 1.6 1 1.6.6 3.7 1 4 1 2-.2 3.8-1.5 5.8-1.5 2.5-.1 5 .8 6.8 2.8l4.5 5.3.4 1-2-.7c-1.4-1-2.7-2.2-4.3-3-1-.6-2.1-.5-3.2-.6 0 .8.3 1.1.5 1.7l.7 2.2c.3 1.5.3 3.1 0 4.6-.4 1.7-1.1 3.2-2.1 4.6-1 1.4-2.4 2.6-3.5 3.7l-2.5 2.4a6.4 6.4 0 0 0-1.8 4.6v.9l3.5-3 4.1-3c2.5-1.7 4.8-4 6-6.8.6-1 1.3-2.4 2.5-2.4a13 13 0 0 1-.8 4c-1 3-4 4.8-6.5 6.5a86.8 86.8 0 0 0-8 6.2 33 33 0 0 0-4.4 5.2c-.4.5-1.1 1.2-1.2 1.8l.7-.4 3.4-2.7 8.7-6c3-2.4 6.2-4.6 9-7.1 3.3-2.8 6.3-6.4 7.6-10.6 1-3.5.6-8.4-2.7-10.5-4.3-2.8-9-5-13.9-6.7-5.5-1.9-12-1.6-12.9 5.5z"/><path d="M136 60v-.1a6.6 6.6 0 0 0-1.5-3.8l-1.1-1h-.3l-.1-.1 1.5 1.2c.9 1 1.3 2.3 1.5 3.8z"/></g></svg>