<svg width="202" height="79" xmlns="http://www.w3.org/2000/svg"><path d="M4.3 14.5c1.9.5 2.7.8 3 2 .5 1.5-.9 4-2.3 6.5-1.8 3.2-3.8 6.8-3.4 10.6C2.8 46 16.9 52.7 17.9 53c2 5 5 9.2 9 12.6l.3.3.5.4a52.6 52.6 0 0 0 33 12.1l4.4.1c18.9 0 29.6-5.8 35.5-11.1 5.9 5.3 16.6 11.1 35.4 11.1h4.4a52.6 52.6 0 0 0 33.1-12.2l.5-.4.3-.3c4-3.4 7-7.7 9-12.6 1-.4 15-7 16.3-19.5.3-3.8-1.7-7.4-3.4-10.6-1.4-2.5-2.9-5-2.4-6.6.3-1 1.2-1.4 3-1.9 1.6-.4 4.1-1 4.4-3.6.4-5-5.5-9.4-14-10.2-8.4-.8-15 2.4-15.5 7.3-.3 2.6 2 3.8 3.5 4.4 1.7.8 2.5 1.3 2.6 2.5.2 1.6-1.7 3.8-3.6 6-2.3 2.8-5 5.9-5.4 9.7-1 9.8 6.7 17.6 10.4 20.8a28.3 28.3 0 0 1-26.3 18c-12.4 0-22.4-10-22.4-22.3 0-9.1 7-16.5 15.8-17.3.4 1 1 2 1.8 3a7.7 7.7 0 0 0 11-.2c3-3 3-8 0-11a8 8 0 0 0-11 .1c-1.1 1.1-1.6 2.4-2 3.8-4.8.4-9.2 2.3-12.7 5.4-1.5-3.5-5-7-12.5-7-8 0-16.7 4-17 4.3a2.2 2.2 0 0 0-.3 3.7c4.6 2.8 6.4 5 7.7 7.3 3.4 6.1 6.3 9.6 10.9 9.6a9.6 9.6 0 0 0 4-.9 26.6 26.6 0 0 0 22 25.4c-2.5.4-5.1.8-8 .9-20 .8-31-4.8-36.7-10 4.3-5 6.7-11 6.7-17.1a2.2 2.2 0 0 0-4.3 0c0 4.9-2 9.8-5.3 14a22.7 22.7 0 0 1-5.3-14c0-1.2-1-2.2-2.2-2.2-1.2 0-2.2 1-2.2 2.2 0 6.2 2.5 12.1 6.7 17.2C92 69.4 81 75 61 74.2c-2.9-.1-5.5-.5-8.1-1a26.6 26.6 0 0 0 22-25.3l1.5.6 2.6.3c4.6 0 7.5-3.5 11-9.6 1.2-2.3 3-4.5 7.6-7.3a2.2 2.2 0 0 0-.2-3.7c-.4-.2-9.1-4.3-17.1-4.3-7.6 0-11 3.5-12.6 7-3.4-3-7.8-5-12.7-5.4a7.5 7.5 0 0 0-1.9-3.8 7.8 7.8 0 1 0-.1 11c1-.8 1.5-1.9 1.8-3 8.9.9 15.9 8.3 15.9 17.4 0 12.3-10 22.3-22.4 22.3a28.3 28.3 0 0 1-26.3-18c3.7-3.2 11.3-11 10.3-20.8-.3-3.8-3-7-5.3-9.7-1.9-2.2-3.8-4.4-3.6-6 0-1.2.9-1.7 2.6-2.5 1.4-.6 3.8-1.8 3.5-4.4C29.1 3.1 22.4-.2 14 .7 5.5 1.5-.5 5.9 0 10.9c.3 2.6 2.8 3.2 4.3 3.6zM183.7 37c-.9 0-1.7-.5-2.2-1.2-.6-.7-.8-1.5-.8-2.4.2-1.7 1.6-3 3.6-3a3.3 3.3 0 0 1-.2 6.6h-.4zM173.1 31c.3-2.4 2.4-5 4.4-7.3 2.4-2.9 5-5.8 4.6-9.2-.4-3.8-3.3-5.2-5.1-6l-1-.5c.8-1.8 5.3-3.6 10.8-3 6 .6 9.6 3.2 10 5-.3.2-.7.3-1 .3-2 .5-5.1 1.3-6.2 5-1 3.2 1 6.6 2.8 9.8 1.5 2.8 3.1 5.6 2.9 8-.7 6.7-6.4 11.5-10.2 14 .3-2 .6-4 .6-6.1a7.5 7.5 0 0 0 6-6.7 7.7 7.7 0 1 0-13.6 4.2c.9 1 2 1.7 3.3 2.2v.2a28 28 0 0 1-.6 5c0 .3 0 .6-.2 1-3.3-3.2-8.1-9-7.5-15.9zm-22-6.2a3.4 3.4 0 0 1 4.9 0 3.5 3.5 0 0 1-4.8 4.9 3.5 3.5 0 0 1 0-5zm-21.7 10.7h-.2c-3.7-5.3-9-5-9.2-5a2.2 2.2 0 1 0 .3 4.4s4.1-.2 6.4 5a4 4 0 0 1-.3 2.5c-.4.9-1.4 1.5-2.8 1.9-3.1.9-4.9-.7-8.6-7.2a20.6 20.6 0 0 0-5.7-6.5c3-1.1 7.5-2.4 11.6-2.4 4.9 0 7.8 1.8 9 5.5 0 .3 0 1.2-.5 1.8zM50 29.7a3.5 3.5 0 0 1-4.9 0 3.5 3.5 0 1 1 4.9 0zm30.2-1.5c4.2 0 8.6 1.3 11.7 2.4-2.6 2-4.4 4-5.8 6.5-3.7 6.5-5.4 8-8.6 7.2-1.4-.4-2.3-1-2.8-2a4 4 0 0 1-.2-2.3c2.2-5.1 6-5.1 6.4-5.1 1.2.1 2.2-.8 2.3-2 0-1.2-.8-2.2-2-2.3-.3 0-5.6-.4-9.2 5l-.2-.1c-.5-.6-.6-1.5-.5-1.8 1.2-3.7 4-5.5 9-5.5zm-62.8 8.7h-.3a3.3 3.3 0 0 1-3.3-3c-.2-1.8 1.2-3.4 3.3-3.6a3.3 3.3 0 0 1 2.6 5.4c-.6.7-1.4 1.1-2.3 1.2zm-3-32c5.5-.5 10 1.3 10.7 3.1l-1 .5c-1.7.8-4.7 2.2-5 6-.4 3.4 2.1 6.3 4.6 9.2 2 2.4 4.1 4.9 4.3 7.3.7 6.8-4.2 12.7-7.5 15.9l-.2-1.1c-.3-1.6-.5-3.2-.5-4.9v-.3a7.4 7.4 0 0 0 3.2-2.1c1.3-1.6 2-3.6 1.7-5.6a7.6 7.6 0 0 0-8.3-7 7.7 7.7 0 0 0-6.9 8.4c.3 3.4 2.8 6 6 6.6 0 2.2.2 4.2.6 6.2-3.9-2.5-9.5-7.3-10.2-14-.2-2.4 1.4-5.2 2.9-8 1.8-3.3 3.7-6.6 2.7-9.9-1-3.6-4.2-4.4-6.1-4.9l-1-.3c.3-1.8 4-4.4 10-5z" fill="#BB946A" fill-rule="nonzero"/></svg>