
<svg width="32px" height="51.2px" viewBox="0 0 320 512" version="1.1" xmlns="http://www.w3.org/2000/svg" xmlns:xlink="http://www.w3.org/1999/xlink">
    <g id="Page-1" stroke="none" stroke-width="1" fill="none" fill-rule="evenodd">
        <g id="Group" transform="translate(112.000000, 84.000000)">
            <path d="M10.6902087,86 C8.9028588,86 7.22277395,85.2882692 5.95849202,84.0000241 C4.69541532,82.7105498 4,80.9957579 4,79.1764805 C4,77.3535154 4.69541532,75.6374943 5.95849202,74.34802 L42.5816902,36.9962882 C43.8447669,35.7092723 45.526057,35 47.3109965,35 C49.0983464,35 50.7796365,35.7092723 52.0439184,36.9962882 C54.6520272,39.6563667 54.6520272,43.9882137 52.0439184,46.6470631 L15.4207202,84.0000241 C14.1576435,85.2882692 12.4763535,86 10.6902087,86" id="Fill-11" fill="#0A0B09"></path>
            <path d="M85.3117987,86 C83.524341,86 81.8441549,85.2882692 80.5797968,84.0000241 L43.9543915,46.6470631 C41.3485362,43.9882137 41.3485362,39.6563667 43.9543915,36.9962882 C45.2187496,35.7092723 46.8989357,35 48.6875987,35 C50.473851,35 52.1540371,35.7092723 53.41719,36.9962882 L90.0438005,74.34802 C92.6520665,77.010557 92.6520665,81.3399455 90.0438005,84.0000241 C88.7770318,85.2882692 87.0968457,86 85.3117987,86" id="Fill-12" fill="#0A0B09"></path>
            <polygon id="Fill-13" fill="#0A0B09" points="45 45 51 45 51 0 45 0"></polygon>
            <polygon id="Fill-14" fill="#0A0B09" points="36 16 60 16 60 11 36 11"></polygon>
            <path d="M79.4836872,81.8802172 L48.0006061,50 L16.5175251,81.8802172 C14.215393,84.211389 10.8403873,84.7969441 8,83.6282892 L8,135 L35.7565123,135 L35.7565123,106.160495 L60.2447,106.160495 L60.2447,135 L88,135 L88,83.6282892 C85.1596127,84.7969441 81.7833947,84.211389 79.4836872,81.8802172" id="Fill-15" fill="#0A0B09"></path>
            <polygon id="Fill-16" fill="#FFFFFE" points="36 135 61 135 61 94 36 94"></polygon>
            <polygon id="Fill-17" fill="#0A0B09" points="0 136 95 136 95 130 0 130"></polygon>
        </g>
        <g id="map-marker" fill="#000000" fill-rule="nonzero">
            <path d="M160,0 C71.641,0 0,71.625 0,160 C0,184.75 5.625,208.219 15.672,229.125 C16.234,230.313 160,512 160,512 L302.594,232.625 C313.719,210.844 320,186.156 320,160 C320,71.625 248.375,0 160,0 Z M160,256 C106.984,256 64,213 64,160 C64,107 106.984,64 160,64 C213,64 256,107 256,160 C256,213 213,256 160,256 Z" id="Shape"></path>
        </g>
    </g>
</svg>