
<svg width="32px" height="51.2px" viewBox="0 0 320 512" version="1.1" xmlns="http://www.w3.org/2000/svg" xmlns:xlink="http://www.w3.org/1999/xlink">
    <g id="Page-1" stroke="none" stroke-width="1" fill="none" fill-rule="evenodd">
        <g id="map-marker" fill="#000000" fill-rule="nonzero">
            <path d="M160,0 C71.641,0 0,71.625 0,160 C0,184.75 5.625,208.219 15.672,229.125 C16.234,230.313 160,512 160,512 L302.594,232.625 C313.719,210.844 320,186.156 320,160 C320,71.625 248.375,0 160,0 Z M160,256 C106.984,256 64,213 64,160 C64,107 106.984,64 160,64 C213,64 256,107 256,160 C256,213 213,256 160,256 Z" id="Shape"></path>
        </g>
        <g id="bed" transform="translate(86.000000, 106.000000)" fill="#000000">
            <path d="M131.07,23 L54.93,23 C51.21,23 45,24.4309133 45,34.1428571 L45,49 L141,49 L141,34.1428571 C141,24.4613583 134.79,23 131.07,23 Z" id="Path"></path>
            <polygon id="Path" points="24.2192786 51.5875416 9.65151824 51.5875416 9.65151824 0 0 0 0 100 9.65151824 100 9.65151824 74.1759903 138.348482 74.1759903 138.348482 99.9697611 148 99.9697611 148 51.5875416"></polygon>
            <circle id="Oval" cx="25.5" cy="35.5" r="13.5"></circle>
        </g>
    </g>
</svg>