
<svg width="32px" height="51.2px" viewBox="0 0 320 512" version="1.1" xmlns="http://www.w3.org/2000/svg" xmlns:xlink="http://www.w3.org/1999/xlink">
    <g id="Page-1" stroke="none" stroke-width="1" fill="none" fill-rule="evenodd">
        <g id="Group-2" transform="translate(96.000000, 118.000000)">
            <path d="M92.502,98.733 L92.971,101.315 C93.094,101.99 99.577,101.379 107.448,99.946 C115.319,98.512 121.602,96.799 121.477,96.123 L121.008,93.541 L92.502,98.733" id="Fill-24" fill="#0A0B09"></path>
            <path d="M121.008,93.541 C121.13,94.217 114.85,95.93 106.977,97.363 C99.106,98.799 92.625,99.408 92.502,98.733 C92.379,98.055 98.659,96.344 106.529,94.91 C114.403,93.475 120.883,92.863 121.008,93.541" id="Fill-25" fill="#0A0B09"></path>
            <polyline id="Fill-26" fill="#FFFFFE" points="123.869 12.821 61.922 24.209 100.742 63.67 123.869 12.821"></polyline>
            <polyline id="Fill-27" fill="#0A0B09" points="123.869 12.821 100.742 63.67 61.922 24.209 58.341 24.863 101.681 68.875 126.952 12.254 123.869 12.821"></polyline>
            <polyline id="Fill-28" fill="#0A0B09" points="110.725 38.281 82.57 43.457 100.354 61.514 110.725 38.281"></polyline>
            <path d="M92.058,15.43 C73.076,18.887 57.926,23.018 58.225,24.653 C58.523,26.291 74.153,24.811 93.136,21.356 C112.12,17.899 127.267,13.772 126.97,12.133 C126.672,10.498 111.042,11.975 92.058,15.43 Z M92.28,16.647 C108.025,13.779 119.25,12.649 123.903,12.692 C119.564,14.373 108.663,17.272 92.915,20.141 C77.17,23.008 65.945,24.139 61.292,24.094 C65.631,22.414 76.535,19.516 92.28,16.647 Z" id="Fill-29" fill="#0A0B09"></path>
            <path d="M101.681,68.875 L98.603,65.748 L104.23,96.66 C104.386,97.508 109.206,96.414 109.094,95.789 L103.464,64.883 L101.681,68.875" id="Fill-30" fill="#0A0B09"></path>
            <path d="M110.741,38.307 C110.816,38.725 104.625,40.205 96.91,41.612 C89.194,43.014 82.878,43.813 82.801,43.395 C82.725,42.975 88.919,41.494 96.633,40.092 C104.348,38.686 110.664,37.887 110.741,38.307" id="Fill-31" fill="#0A0B09"></path>
            <path d="M10.577,83.307 L10.22,85.949 C10.126,86.645 16.582,88.088 24.642,89.174 C32.702,90.26 39.31,90.578 39.404,89.883 L39.759,87.242 L10.577,83.307" id="Fill-32" fill="#0A0B09"></path>
            <path d="M39.759,87.242 C39.667,87.936 33.058,87.619 24.998,86.531 C16.939,85.446 10.483,84 10.577,83.307 C10.67,82.613 17.277,82.93 25.337,84.018 C33.396,85.104 39.854,86.547 39.759,87.242" id="Fill-33" fill="#0A0B09"></path>
            <polyline id="Fill-34" fill="#FFFFFE" points="67.869 10.121 4.418 1.676 29.551 52.01 67.869 10.121"></polyline>
            <polyline id="Fill-35" fill="#0A0B09" points="67.869 10.121 29.551 52.01 4.418 1.676 0.753 1.19 28.825 57.332 71.027 10.543 67.869 10.121"></polyline>
            <polyline id="Fill-36" fill="#0A0B09" points="47.169 30.602 18.333 26.766 29.851 49.803 47.169 30.602"></polyline>
            <path d="M36.303,2.656 C16.869,0.039 0.932,-0.728 0.706,0.946 C0.48,2.619 16.052,6.1 35.485,8.719 C54.918,11.338 70.857,12.106 71.081,10.432 C71.31,8.758 55.735,5.276 36.303,2.656 Z M36.135,3.901 C52.253,6.072 63.458,8.504 67.943,10.008 C63.221,10.27 51.771,9.649 35.653,7.477 C19.536,5.303 8.329,2.873 3.848,1.369 C8.568,1.104 20.019,1.729 36.135,3.901 Z" id="Fill-37" fill="#0A0B09"></path>
            <path d="M28.825,57.332 L26.831,53.342 L22.565,84.99 C22.448,85.858 27.45,86.315 27.538,85.674 L31.803,54.031 L28.825,57.332" id="Fill-38" fill="#0A0B09"></path>
            <path d="M47.176,30.633 C47.12,31.061 40.671,30.545 32.771,29.483 C24.875,28.416 18.518,27.205 18.577,26.778 C18.633,26.348 25.082,26.862 32.982,27.926 C40.879,28.99 47.234,30.203 47.176,30.633" id="Fill-39" fill="#0A0B09"></path>
        </g>
        <g id="map-marker" fill="#000000" fill-rule="nonzero">
            <path d="M160,0 C71.641,0 0,71.625 0,160 C0,184.75 5.625,208.219 15.672,229.125 C16.234,230.313 160,512 160,512 L302.594,232.625 C313.719,210.844 320,186.156 320,160 C320,71.625 248.375,0 160,0 Z M160,256 C106.984,256 64,213 64,160 C64,107 106.984,64 160,64 C213,64 256,107 256,160 C256,213 213,256 160,256 Z" id="Shape"></path>
        </g>
    </g>
</svg>